<?xml version="1.0" encoding="utf-8"?>
<!-- Generator: Adobe Illustrator 17.0.0, SVG Export Plug-In . SVG Version: 6.00 Build 0)  -->
<svg version="1.2" baseProfile="tiny" id="Ebene_1" xmlns="http://www.w3.org/2000/svg" xmlns:xlink="http://www.w3.org/1999/xlink"
	 x="0px" y="0px" width="365.137207px" height="585.6143188px" viewBox="0 -0.0000305 365.137207 585.6143188" overflow="visible"
	 xml:space="preserve">
<g>
	<g>
		<g>
			<g>
				<path fill="#FFFFFF" d="M184.483902,585.6142578c-97.8096008,0-177.3813934-79.5731812-177.3813934-177.3808899
					c0-97.8066101,79.571785-177.3784027,177.3813934-177.3784027c97.8076019,0,177.3763885,79.5717926,177.3763885,177.3784027
					C361.8602905,506.0410767,282.2915039,585.6142578,184.483902,585.6142578z M184.483902,272.9789734
					c-74.5796051,0-135.256897,60.674408-135.256897,135.2543945c0,74.5801086,60.6772995,135.2573547,135.256897,135.2573547
					c74.5804901,0,135.2552948-60.6772461,135.2552948-135.2573547
					C319.7391968,333.6533813,259.0643921,272.9789734,184.483902,272.9789734z"/>
			</g>
		</g>
	</g>
	<g>
		<path fill="#FFFFFF" d="M177.2030945,339.7538757c4-8.1049194,10.5458984-8.1049194,14.5458984,0l18.969696,38.4371033
			l42.4190063,6.1644897c8.9443054,1.2998047,10.9672852,7.5253906,4.4956055,13.8345032l-30.6929016,29.9204102
			l7.2436981,42.2440796c1.527298,8.9082031-3.7680969,12.7559204-11.7685852,8.5498047l-37.9394226-19.945282
			l-37.9384918,19.945282c-8.0005035,4.2061157-13.2953949,0.3583984-11.7676086-8.5498047l7.2471008-42.2440796
			l-30.692894-29.9204102c-6.4716797-6.3091125-4.4486847-12.5346985,4.4955978-13.8345032l42.4141083-6.1644897
			L177.2030945,339.7538757z"/>
	</g>
	<g>
		<g>
			<polygon fill="#FFFFFF" points="365.1371765,-0.0000305 246.1903992,-0.0000305 182.7098999,109.9155731 242.1859894,213.972168 
							"/>
		</g>
		<g>
			<polygon fill="#FFFFFF" points="104.6747971,-0.0000305 0,-0.0000305 123.2606964,214.0097656 227.9375153,214.0097656 			"/>
		</g>
	</g>
</g>
</svg>
