<?xml version="1.0" encoding="utf-8"?>
<!-- Generator: Adobe Illustrator 17.0.0, SVG Export Plug-In . SVG Version: 6.00 Build 0)  -->
<svg version="1.2" baseProfile="tiny" id="Ebene_1" xmlns="http://www.w3.org/2000/svg" xmlns:xlink="http://www.w3.org/1999/xlink"
	 x="0px" y="0px" width="572.3594971px" height="572.333313px" viewBox="0 -0.0000305 572.3594971 572.333313" overflow="visible"
	 xml:space="preserve">
<g>
	<g>
		<g>
			<path fill="#FFFFFF" d="M294.4217834,532.1156006c-6.7051086-3.3448486-13.9335938-5.0177002-21.2149048-5.1231689
				c6.8291016-3.2059326,13.0733032-7.8867188,18.2950134-13.9647217
				c9.4403992-10.967865,14.7518921-25.2715454,14.9579773-40.2705383l0.0605164-4.7989197l-4.7842102,0.3379211
				c-13.7832031,0.9745789-26.625885,7.6181946-36.1611023,18.7070923
				c-9.4306946,10.969696-14.7382965,25.2733459-14.9481964,40.2694397l-0.0673981,4.8037109l0.125-0.0106201l1.3730011,3.8192139
				c5.0214996,13.9512939,14.6309052,25.0430908,27.0468903,31.2412109
				c6.9179993,3.4550781,14.2822266,5.2070312,21.8818054,5.2070312c6.0859985,0,12.1123047-1.1307373,17.9179993-3.3623047
				l4.0244141-1.5498047l-1.4580078-4.0585938C316.4510803,549.4036865,306.844574,538.3070068,294.4217834,532.1156006z"/>
		</g>
		<g>
			<path fill="#FFFFFF" d="M277.938385,40.201458c6.6923828,3.339901,13.8027039,5.0488014,21.1366882,5.1591988
				c-6.7969055,3.2041016-13.0137024,7.877903-18.2157898,13.9267006
				c-9.4453125,10.9707985-14.7587891,25.2725029-14.9580078,40.2715034l-0.0654907,4.7988968l4.7842102-0.3398972
				c13.7870789-0.9726028,26.6269836-7.6133041,36.1620789-18.705101
				c9.4326172-10.9697037,14.742218-25.2714005,14.9472961-40.2685013l0.0684204-4.8008003l-0.1210938,0.0078011
				l-1.3789062-3.8193016c-5.0215149-13.9511986-14.624115-25.0468979-27.039093-31.2421989
				c-12.4658203-6.2217002-26.7520142-6.8652-39.8027191-1.8447001l-4.0273895,1.5477998l1.4599915,4.0625005
				C255.9041901,22.9123592,265.5125732,34.0110588,277.938385,40.201458z"/>
		</g>
		<g>
			<path fill="#FFFFFF" d="M370.024292,517.5354004c-7.4189148-1.1112061-14.7949219-0.4853516-21.735321,1.6553955
				c5.4912109-5.1553955,9.9707031-11.5303345,13.055603-18.9112244c5.593811-13.3447266,6.2217102-28.5898132,1.7792969-42.921814
				l-1.4208984-4.5801086l-4.4472046,1.8008118c-12.8085938,5.1854858-22.9667969,15.468689-28.6064758,28.960907
				c-5.5830078,13.3505859-6.2098999,28.593811-1.7744141,42.9198608l1.4229126,4.5860596l0.1152039-0.0440674l2.4862976,3.2041016
				c9.0878906,11.7197266,21.6524048,19.3046875,35.3739929,21.3565674c2.468811,0.3719482,4.9697876,0.5615234,7.4335938,0.5615234
				l0,0c11.3085938,0,22.0244141-3.8389893,30.9873047-11.1065674l3.3536072-2.7158203l-2.6446228-3.4130859
				C396.313385,527.1604004,383.7498779,519.5775146,370.024292,517.5354004z"/>
		</g>
		<g>
			<path fill="#FFFFFF" d="M202.3367767,54.7854576c2.4629059,0.3711014,4.963913,0.5566025,7.4238129,0.5566025l0,0
				c4.9033966,0,9.6777954-0.7607002,14.261795-2.1709023c-5.4698029,5.1474991-9.9346008,11.5088043-13.0126953,18.8702011
				c-5.5918121,13.3436966-6.2246094,28.5877991-1.776413,42.9188995l1.4209137,4.5791016l4.4433899-1.7977982
				c12.8105011-5.1827011,22.9687042-15.4717026,28.6074066-28.9610062
				c5.5839996-13.3495941,6.2167969-28.5907974,1.7753906-42.9208984l-1.4208984-4.5878983l-0.1152954,0.0468979
				l-2.4862976-3.2069969c-9.0839996-11.7139015-21.648407-19.2998009-35.3789062-21.357502
				c-13.8202972-2.075099-27.5077972,1.7032013-38.4169922,10.5468998l-3.3486023,2.7158012l2.6396027,3.412199
				C176.0320892,45.1536598,188.6023865,52.7385597,202.3367767,54.7854576z"/>
		</g>
		<g>
			<path fill="#FFFFFF" d="M437.4207764,480.302063c-7.4062805,1.2392883-14.2226868,4.0996094-20.1513977,8.2753906
				c3.624115-6.592804,5.9111938-14.0371094,6.5664062-22.0028992c1.1904907-14.4228821-2.9189148-29.1123047-11.5751953-41.3702087
				l-2.7675171-3.9208984l-3.6728821,3.0888977c-10.5791016,8.8926086-17.0614929,21.8153992-18.2568054,36.3828125
				c-1.1787109,14.4306946,2.9296875,29.1210938,11.5820007,41.3671875l2.7676086,3.9229126l0.0888977-0.0791016
				l3.3583984,2.2840881c9.710907,6.5957031,20.6835022,10.0830078,31.7402039,10.0830078l0,0
				c2.8495789,0,5.7070007-0.2373047,8.5018921-0.7021484c13.789093-2.2987061,25.6123047-10.0790405,33.2861938-21.9032593
				l2.3496094-3.6191711l-3.5713196-2.4277039C465.4559937,481.3752441,451.0594788,478.0149536,437.4207764,480.302063z"/>
		</g>
		<g>
			<path fill="#FFFFFF" d="M126.4197845,92.7297592c2.847702,0,5.7149048-0.2352982,8.5166016-0.7050018
				c7.405304-1.2373962,14.2157898-4.1026001,20.1493988-8.2783966c-3.6220093,6.5937958-5.9091034,14.0351944-6.5605011,22.0029984
				c-1.1992035,14.4169998,2.9091949,29.1092987,11.5653992,41.3701019l2.7626953,3.9169922l3.6768036-3.0849915
				c10.5751953-8.8867035,17.0625-21.8066025,18.2617035-36.385704
				c1.1846008-14.4238968-2.9286957-29.1152954-11.5742035-41.3682022l-2.7675934-3.9218979l-0.0957031,0.0762024
				l-3.3583984-2.2812042c-12.2022095-8.291996-26.5791016-11.6611977-40.2471008-9.3789978
				c-13.7919998,2.3067017-25.6113052,10.0830994-33.2714996,21.9042969l-2.3496017,3.615303l3.5625,2.4277039
				C104.385582,89.2405548,115.3523865,92.7297592,126.4197845,92.7297592z"/>
		</g>
		<g>
			<path fill="#FFFFFF" d="M490.0057678,424.0657654c-6.6591797,3.4676819-12.25,8.2938843-16.6044922,14.0965881
				c1.4062195-7.3866882,1.2841187-15.1737976-0.5517883-22.9541016
				c-3.3232117-14.0848999-11.7773132-26.7870789-23.7948914-35.7713928l-3.8447266-2.8702087l-2.5351868,4.0704041
				c-7.3143921,11.7294922-9.4883118,26.0195007-6.1260071,40.2480164
				c3.343811,14.0839844,11.7958984,26.7851868,23.8018188,35.7606812l3.844696,2.8760071l0.0653992-0.0996094l3.8945923,1.1299133
				c5.4707031,1.5868835,11.0429077,2.3916016,16.5703125,2.3916016l0,0c8.7938843,0,17.0682983-1.9854126,24.6005859-5.906311
				c12.4032898-6.445282,21.2450867-17.493103,24.8866882-31.1131897l1.1191406-4.1679993l-4.1435547-1.2070007
				C517.0263062,416.4260559,502.2781677,417.6721497,490.0057678,424.0657654z"/>
		</g>
		<g>
			<path fill="#FFFFFF" d="M57.7508812,154.177063L57.7508812,154.177063c8.785099,0,17.0586052-1.9902039,24.597599-5.9131012
				c6.6621017-3.4687042,12.25-8.2949066,16.6026001-14.0986023c-1.4032974,7.3905945-1.2792969,15.1757965,0.5605011,22.9521027
				c3.3144989,14.0800934,11.7617035,26.7881012,23.7842026,35.7724915l3.8427963,2.8721008l2.5390015-4.066391
				c7.3144989-11.7237091,9.4922028-26.0196075,6.1202087-40.2539978
				c-3.3282013-14.0848999-11.7793045-26.7861099-23.7930069-35.7646103l-3.8467026-2.8778992l-0.0673981,0.1084061
				l-3.8906021-1.1328049c-14.1621017-4.1083984-28.8945007-2.8692017-41.1747971,3.5156021
				c-12.4081993,6.4521027-21.2441025,17.5-24.8778992,31.1123047l-1.1114006,4.1649933l4.1367989,1.2061005
				C46.6414833,153.3694611,52.215683,154.177063,57.7508812,154.177063z"/>
		</g>
		<g>
			<path fill="#FFFFFF" d="M565.0390015,338.1282654l-4.3174438,0.1337891
				c-14.8271484,0.460907-28.3486938,6.1669922-38.0741577,16.0703125
				c-5.2647095,5.3563843-9.0928345,11.6757812-11.4385071,18.5438843
				c-0.9453125-7.4657898-3.4658203-14.8330078-7.6182251-21.664978
				c-7.5096741-12.367218-19.4745789-21.8408203-33.6864929-26.6690063l-4.539093-1.5429077l-1.156189,4.6582031
				c-3.3291016,13.4140015-0.9795227,27.6777039,6.6152039,40.1659851
				c7.5341797,12.368103,19.4921875,21.835907,33.6855774,26.6592102l4.546814,1.546814l0.0283813-0.1191101l4.0498352-0.125
				c14.8251953-0.4667969,28.3446655-6.1708984,38.0702515-16.0653992
				c9.8066406-9.9638977,14.7958984-23.2051086,14.0576172-37.280304L565.0390015,338.1282654z"/>
		</g>
		<g>
			<path fill="#FFFFFF" d="M7.3260827,234.1956635l4.3095002-0.1309052c14.812499-0.4512024,28.3389015-6.155304,38.0830994-16.0625
				c5.2646027-5.3535004,9.0848999-11.6757965,11.4287033-18.5399933
				c0.9452972,7.4618988,3.4725952,14.8260956,7.6180954,21.6551971
				c7.5049057,12.3643036,19.4658051,21.8388977,33.6758041,26.6747894l4.5419998,1.5430145l1.1552963-4.6533051
				c3.3427048-13.3984985,0.9941025-27.6679993-6.6064987-40.1768036
				c-7.527298-12.3701019-19.4882965-21.8379059-33.6836014-26.6611023l-4.5477982-1.5478973l-0.0282974,0.1240997
				l-4.0518036,0.1289062c-14.8231964,0.4608917-28.3436985,6.1678925-38.0741959,16.0605011
				c-9.8067007,9.9756012-14.7949009,23.2167969-14.0488005,37.282196L7.3260827,234.1956635z"/>
		</g>
		<g>
			<path fill="#FFFFFF" d="M568.9978638,253.4446564l-1.5498047-4.0283051l-4.0633545,1.4589081
				c-13.9629517,5.0175934-25.0577393,14.6269989-31.2432251,27.0497894
				c-3.3544922,6.7217102-5.0429688,13.9131165-5.1533203,21.1708984c-3.2041016-6.8104858-7.8778687-13.0361023-13.9375-18.25
				c-10.9677734-9.4422913-25.2724915-14.7547913-40.2724915-14.9570007l-4.7987976-0.0643921l0.3379211,4.7850952
				c0.9794922,13.7891235,7.6200867,26.6289062,18.7059937,36.1621094
				c10.9786072,9.4317017,25.2842102,14.7392883,40.2704773,14.9453125l4.8027954,0.0673828l-0.0108032-0.1260071
				l3.8155518-1.3710938c13.9589844-5.0243835,25.0585938-14.6289062,31.2401733-27.0419006
				C573.3914795,280.7356567,574.0477905,266.5989685,568.9978638,253.4446564z"/>
		</g>
		<g>
			<path fill="#FFFFFF" d="M40.2244835,294.4123535c3.3506012-6.7215881,5.0391006-13.9121094,5.1474991-21.1679077
				c3.2031021,6.8086243,7.8808022,13.0312195,13.9393997,18.2451172
				c10.9571037,9.4364929,25.2578011,14.7489929,40.2626991,14.960907l4.797905,0.0654907l-0.3389053-4.7832031
				c-0.9638977-13.7822876-7.607399-26.6279907-18.6981964-36.1679993
				c-10.9804993-9.4375-25.2813034-14.7480927-40.2764015-14.9492035l-4.8046989-0.0654907l0.014698,0.1337891l-3.8085976,1.3672028
				c-13.9532013,5.0147095-25.0489006,14.6162109-31.2500019,27.039093
				c-6.2460999,12.5205078-6.8964996,26.6542969-1.8398998,39.7987976l1.543,4.023407l4.0635004-1.4580078
				C22.9285831,316.4436646,34.028183,306.8372498,40.2244835,294.4123535z"/>
		</g>
		<g>
			<path fill="#FFFFFF" d="M519.2049561,224.0510559c-5.1552734-5.4882965-11.5273743-9.9657898-18.9042664-13.0507965
				c-13.3018188-5.5722046-28.6817017-6.1943054-42.9208984-1.777298l-4.5859985,1.4208984l1.8017883,4.4452972
				c5.1895142,12.808609,15.476593,22.967804,28.967804,28.6103973c7.4580078,3.1141968,15.4296875,4.6952972,23.6923828,4.6952972
				c0,0,0,0,0.0068054,0c6.4863281,0,12.9541016-0.9843903,19.2178345-2.9228973l4.5839844-1.4218903l-0.0430298-0.1152039
				l3.2012329-2.4853058c11.7235718-9.0898895,19.3095093-21.6503906,21.3631592-35.3721008
				c2.0684204-13.8329926-1.6747437-27.4794922-10.5438843-38.4257965l-2.7149048-3.351593l-3.4110718,2.6425934
				c-11.7275391,9.0879059-19.3115234,21.6524048-21.3563843,35.3798981
				C516.446167,209.7532654,517.0682983,217.114563,519.2049561,224.0510559z"/>
		</g>
		<g>
			<path fill="#FFFFFF" d="M53.1668816,348.2981567c5.1494026,5.4794922,11.5185051,9.9541016,18.8905983,13.0381165
				c7.4512024,3.1219788,15.4238052,4.7059937,23.7022018,4.7059937l0,0c6.4912033,0,12.9550018-0.9814148,19.2168045-2.9208984
				l4.5848999-1.4179077l-1.7969055-4.4501953c-5.1834946-12.8096008-15.4706955-22.9717102-28.9666977-28.6192017
				c-13.3223038-5.5653992-28.6875-6.1787109-42.9219017-1.7675171l-4.5839996,1.421814l0.0469017,0.1181946l-3.2001991,2.4833984
				c-11.717802,9.0869141-19.3037014,21.6455078-21.3584003,35.3701172
				c-2.0742006,13.8358765,1.669899,27.4804993,10.5409985,38.4208984l2.7226009,3.3505859l3.4063015-2.6426086
				c11.7226982-9.0820007,19.3085976-21.6483765,21.3622971-35.3768921
				C55.920784,362.5852661,55.3016815,355.2268677,53.1668816,348.2981567z"/>
		</g>
		<g>
			<path fill="#FFFFFF" d="M425.2205811,160.0862579l-3.9188843,2.7684937l3.0868835,3.6700134
				c8.8926086,10.5770874,21.8203125,17.0625,36.3916016,18.2606964c1.6307983,0.1347961,3.2568054,0.1972961,4.8789062,0.1972961
				l0,0c12.7587891,0,25.719696-4.1817017,36.4862976-11.7724915l3.9296875-2.7666016l-0.0820007-0.1016083l2.2773132-3.3535004
				c8.3319702-12.2646027,11.6660156-26.555603,9.3848267-40.2421951
				c-2.3135376-13.7967987-10.0879211-25.6191025-21.9024353-33.2851028l-3.6190796-2.3506012l-2.4248047,3.5684052
				c-8.3506165,12.2616959-11.6807251,26.5575943-9.381897,40.246994c1.2353821,7.4121094,4.1035767,14.222702,8.2753906,20.157196
				c-6.5917969-3.6239929-14.0361023-5.9139862-22.0078125-6.5721893
				C452.1053772,147.3079529,437.3611755,151.5139618,425.2205811,160.0862579z"/>
		</g>
		<g>
			<path fill="#FFFFFF" d="M110.6873856,424.0305481c0,0,0,0,0.0048981,0c12.7401962,0,25.6865005-4.1846008,36.4462967-11.7714844
				l3.9266968-2.7675171l-3.094696-3.6748962c-8.8847961-10.5791016-21.8086014-17.0653992-36.3827972-18.2635803
				c-14.482399-1.1817017-29.2441025,3.0204773-41.3662033,11.5820007l-3.9247971,2.7685852l0.0820007,0.0986023
				l-2.2743988,3.3496094c-8.3418007,12.2606812-11.6748009,26.5478821-9.392601,40.2402039
				c2.3114967,13.8007812,10.0927963,25.6221008,21.910202,33.2822876l3.6190948,2.3427124l2.419899-3.5644226
				c8.347702-12.2587891,11.6768036-26.5536804,9.3848038-40.2442017
				c-1.2373047-7.406189-4.0996017-14.2157898-8.2763977-20.1483765c6.5917969,3.6210938,14.0341949,5.9081726,21.9970932,6.5673828
				C107.4109802,423.9622498,109.0574799,424.0305481,110.6873856,424.0305481z"/>
		</g>
		<g>
			<path fill="#FFFFFF" d="M415.2273865,99.4983597c-14.0751953,3.3192978-26.7782898,11.767601-35.7713928,23.7910004
				l-2.8731079,3.8437958l4.0722961,2.5400009c8.0371094,5.0117035,17.4491882,7.6631012,27.2119141,7.6631012
				c4.3182983,0,8.7030945-0.5166016,13.0350952-1.5401001c14.0810852-3.3388062,26.7851868-11.7861023,35.7675781-23.7919998
				l2.8828125-3.8457031l-0.1141968-0.072197l1.1318054-3.8916016c4.1416016-14.2372971,2.8964844-28.8613968-3.5088196-41.1777992
				c-6.4589844-12.4062004-17.5067749-21.2450981-31.1132812-24.8857002l-4.1708984-1.1171989l-1.2021179,4.1445007
				c-4.1474915,14.2421989-2.8983765,28.8671989,3.5126953,41.1767998
				c3.4804993,6.6923981,8.3379211,12.2997971,14.1679993,16.6621017
				C430.8182678,97.5725555,422.9705811,97.6702576,415.2273865,99.4983597z"/>
		</g>
		<g>
			<path fill="#FFFFFF" d="M144.1053772,474.3811646c4.3213043,0,8.7050018-0.5186157,13.0322113-1.5410156
				c14.0811005-3.3222961,26.7841949-11.7714844,35.7733917-23.7870789l2.871109-3.842804l-4.0703125-2.5420227
				c-11.594696-7.2323914-26.1221008-9.4677734-40.2480011-6.1259766
				c-14.0859985,3.3359985-26.789093,11.7880859-35.7626953,23.7998047l-2.8788986,3.8456726l0.1162033,0.0664062
				l-1.1328049,3.8897095c-4.142601,14.2392883-2.9023972,28.8612976,3.5048065,41.1758118
				c6.4638977,12.4131165,17.5118027,21.2489319,31.1182022,24.8789368l4.1660004,1.1112061l1.2011871-4.1395264
				c4.148407-14.2460938,2.8964996-28.8692322-3.5136871-41.1700439
				c-3.4912109-6.7108765-8.3613129-12.3299866-14.2158051-16.6971741
				C137.3533783,473.9416504,140.692276,474.3811646,144.1053772,474.3811646L144.1053772,474.3811646z"/>
		</g>
		<g>
			<path fill="#FFFFFF" d="M339.7488708,109.6106567h0.0049133c9.6748047,0,19.3916016-2.7968979,28.092804-8.0907974
				c12.3602905-7.5195999,21.8301086-19.4824982,26.6591797-33.6758041l1.5517273-4.5497971l-0.1230164-0.027401
				l-0.1289062-4.0555992c-0.4649048-14.8223-6.1679993-28.3446999-16.0644836-38.0751991
				c-9.9100952-9.7363005-23.3271179-14.7705002-37.280304-14.0547009l-4.3143921,0.2256002l0.1376953,4.3144007
				c0.4570007,14.8300991,6.1688843,28.3505993,16.070282,38.0702972c5.360321,5.2724991,11.742218,9.1221008,18.6807251,11.4747009
				c-7.5420227,0.9393997-15.0030212,3.4570007-21.804718,7.5917969
				c-12.3642883,7.5078049-21.8339844,19.4687042-26.6708984,33.6777039l-1.5449829,4.5438995l4.6542969,1.1592026
				C331.6033936,109.1145554,335.6648865,109.6106567,339.7488708,109.6106567z"/>
		</g>
		<g>
			<path fill="#FFFFFF" d="M204.528183,470.8147583c-12.3641968,7.5215149-21.8339996,19.4823914-26.6600952,33.6854858
				l-1.5458984,4.5440063l0.1278992,0.0332031l0.1221008,4.046936c0.4628906,14.8212891,6.1660004,28.3417969,16.0625,38.0770264
				c9.2635956,9.1055908,21.5340881,14.1201172,34.5516968,14.1201172c0.9073029,0,1.8154907-0.0233154,2.7285004-0.0742188
				l4.3096008-0.227417l-0.1348114-4.3145752c-0.4598999-14.8270264-6.1678925-28.3505859-16.0672913-38.0692139
				c-5.3144989-5.2237549-11.6426086-9.0479736-18.5108032-11.405365c7.4902954-0.9550781,14.871109-3.539978,21.6338043-7.6503906
				c12.3593903-7.5097046,21.8339996-19.4736023,26.6660004-33.6796875l1.5439911-4.5439148l-4.6552887-1.157196
				C231.4617767,460.9163513,216.8973846,463.2883606,204.528183,470.8147583z"/>
		</g>
	</g>
	<g>
		<path fill="#FFFFFF" d="M264.4422913,252.8010559l-28.3535156,21.4219055l-29.6181946-52.9286957l66.8340149-48.2012024
			h59.1903992v223.058609h-68.0527039V252.8010559z"/>
	</g>
</g>
</svg>
