<?xml version="1.0" encoding="utf-8"?>
<!-- Generator: Adobe Illustrator 17.0.0, SVG Export Plug-In . SVG Version: 6.00 Build 0)  -->
<svg version="1.2" baseProfile="tiny" id="Ebene_1" xmlns="http://www.w3.org/2000/svg" xmlns:xlink="http://www.w3.org/1999/xlink"
	 x="0px" y="0px" width="576.597229px" height="464.484314px" viewBox="0 0.0000305 576.597229 464.484314" xml:space="preserve">
<g>
	<path fill="#FFFFFF" d="M414.9838867,250.3662262c2.680603,0,5.3769226-0.2968903,8.0537109-0.8398895l4.1849976-48.75
		c2.1264954,0.9726868,4.4742126,1.5488892,6.9667969,1.5488892c9.2798157,0,16.8033142-7.5224915,16.8033142-16.8007965
		c0-9.2841949-7.5234985-16.8056946-16.8033142-16.8056946c-9.2826843,0-16.8060913,7.5214996-16.8060913,16.8056946
		c0,5.8818054,3.0371094,11.0420074,7.6162109,14.0429993l-39.2987976,37.6708984
		C393.2720032,245.6299286,403.5404968,250.3662262,414.9838867,250.3662262z"/>
	<path fill="#FFFFFF" d="M553.2891235,154.4541321c-12.8741455,0-23.3077393,10.434494-23.3077393,23.3076019
		c0,6.503891,2.6768188,12.375,6.9742432,16.6024933L444.375,252.4277344
		c-9.4945984,5.9501953-19.6098938,8.7792969-29.3911133,8.7792969c-19.9648743,0-38.5282898-11.7812042-47.5478821-32.8056946
		L289.3588867,46.4531288c12.105011-0.8428001,21.6953125-10.8270988,21.6953125-23.1444988
		c0-12.8740997-10.4375-23.3085995-23.3106079-23.3085995c-12.8719788,0-23.3085022,10.4344997-23.3085022,23.3085995
		c0,12.3174,9.5908203,22.3016987,21.6932983,23.1444988l-78.0751801,181.9482117
		c-9.0459137,21.0811005-27.7168121,32.9151001-47.7832031,32.9151001c-9.7495117,0-19.8271027-2.789093-29.2934113-8.6748047
		l-92.3886948-57.4073029c4.8823013-4.2713928,8.0283012-10.4765015,8.0283012-17.4725952
		c0-12.8731079-10.4346008-23.3076019-23.3080997-23.3076019C10.4341002,154.4541321,0,164.8886261,0,177.761734
		c0,12.8730011,10.4341002,23.3085938,23.3080997,23.3085938c5.7378006,0,10.9218998-2.1524048,14.9834003-5.5907898
		c3.8496017,8.2372894,50.6435966,108.3300018,74.3251953,158.6776886c8.8506012,18.8125,13.530304,17.8096008,13.530304,38.601593
		v6.3769226c0,4.9423828,4.0399933,8.9814758,8.9813995,8.9814758h307.2559204c4.6708984,0,8.5653992-3.578186,8.9481812-8.2324829
		c1.8545227-22.5,11.0401001-43.4432983,22.0068054-66.6650085l65.0244446-137.6923981
		c4.0532227,3.4091949,9.2138062,5.5429993,14.925354,5.5429993c12.8744507,0,23.3081055-10.4355927,23.3081055-23.3085938
		C576.597229,164.8886261,566.1635742,154.4541321,553.2891235,154.4541321z M152.3441925,353.5332336l-7.9589996-33.0078125
		l33.0049133,7.960907l7.9589996,33.0039062L152.3441925,353.5332336z M288.2983093,361.4902344l-38.1250153-62.3535156
		l38.1250153-62.3524933l38.1240845,62.3524933L288.2983093,361.4902344z M424.2514954,353.5332336l-33.0048828,7.9570007
		l7.9579773-33.0039062l33.0057983-7.960907L424.2514954,353.5332336z"/>
	<path fill="#FFFFFF" d="M142.9512024,202.3252258c2.7279968,0,5.2650909-0.7099915,7.5424042-1.8622894l4.2592926,49.6180878
		c1.8404083,0.2510071,3.6831055,0.3975067,5.5171051,0.3975067c11.8681946,0,22.7442017-5.3408051,30.4882965-14.4736023
		l-38.2617035-36.6728973c4.3798981-3.0332031,7.257309-8.0800934,7.257309-13.8076019
		c0-9.2841949-7.5214996-16.8056946-16.8027039-16.8056946c-9.2808075,0-16.8041992,7.5214996-16.8041992,16.8056946
		C126.1470032,194.8027344,133.6703949,202.3252258,142.9512024,202.3252258z"/>
	<path fill="#FFFFFF" d="M443.1440125,421.1191406H135.2070007c-12.0063019,0-21.8265991,9.8241882-21.8265991,21.8280945
		c0,11.8437805,9.6919022,21.5371094,21.5361023,21.5371094h308.2275085c11.8456726,0,21.5380859-9.6933289,21.5380859-21.5390015
		v-0.2861023C464.6820984,430.8125305,454.9896851,421.1191406,443.1440125,421.1191406z"/>
</g>
</svg>
