<?xml version="1.0" encoding="utf-8"?>
<!-- Generator: Adobe Illustrator 17.0.0, SVG Export Plug-In . SVG Version: 6.00 Build 0)  -->
<svg version="1.2" baseProfile="tiny" id="Ebene_1" xmlns="http://www.w3.org/2000/svg" xmlns:xlink="http://www.w3.org/1999/xlink"
	 x="0px" y="0px" width="498.1220093px" height="488.0693054px" viewBox="0 0.0000153 498.1220093 488.0693054"
	 xml:space="preserve">
<g>
	<g>
		<polygon fill="#FFFFFF" points="333.5155945,363.5166016 333.5155945,242.5576172 166.6298065,242.5576172 
			166.6298065,304.8340454 0,304.8340454 0,488.0693359 166.6298065,488.0693359 166.8867035,488.0693359 330.3457031,488.0693359 
			333.5155945,488.0693359 497.2304077,488.0693359 497.2304077,363.5166016 		"/>
	</g>
	<g>
		<path fill="#FFFFFF" d="M282.8125,206.4717102h-63.3946075V54.864315h-24.4452972V25.0713158
			c7.9942017,0,15.5117035-2.75,22.5429993-8.2588005c7.0283051-5.5019999,10.5449066-11.1063995,10.5449066-16.8125H282.8125
			V206.4717102z"/>
	</g>
	<g>
		<path fill="#FFFFFF" d="M117.4227982,272.1914062H10.0957003v-20.027298l53.160099-69.2783966
			c3.6894989-4.8076019,6.0458984-9.2861023,7.0684052-13.4393921c1.0223999-4.1524048,1.5389938-9.1406097,1.5389938-14.972702
			v-5.8993988c0-2.0381012-0.8709946-3.6025085-2.6035004-4.6992035c-1.732399-1.0917969-4.0253983-1.6376953-6.8768959-1.6376953
			c-2.652401,0-4.9453011,0.5517883-6.8799019,1.6445007c-1.9403992,1.0956879-2.9053001,2.6689911-2.9053001,4.7118988v25.8583984
			H10.0957003v-26.1210022c0-9.4317017,4.3788996-16.6846008,13.1465006-21.7667007
			c8.7616978-5.0791016,22.1161976-7.6191025,40.0566025-7.6191025c19.364296,0,33.5311966,3.342804,42.5038986,10.030304
			c7.7441025,5.6679993,11.6201019,13.6631012,11.6201019,23.9813995v11.7734985
			c0,3.1981964-0.7157974,6.7588043-2.1493988,10.6865082c-0.4111023,1.3085938-1.2352982,3.0546875-2.4618988,5.2304993
			L59.630806,252.8184204h57.7919998C117.4228058,252.8184204,117.4228058,272.1914062,117.4227982,272.1914062z"/>
	</g>
	<g>
		<path fill="#FFFFFF" d="M498.1220093,301.3994141c0,14.1289062-6.680603,23.8945312-20.047821,29.2871094
			c-8.9101868,3.6513672-21.4960938,5.4776001-37.7548828,5.4776001c-20.7167969,0-35.7012024-2.5733032-44.9403992-7.7286377
			c-9.2442017-5.1512451-13.8652954-13.1190796-13.8652954-23.906189v-39.7207031h46.7773743v39.6885376
			c0,1.914978,0.9189148,3.4315796,2.7646179,4.546814c1.8526001,1.116272,4.1582031,1.6708984,6.9258118,1.6708984
			c3.226593,0,5.6474915-0.515625,7.266571-1.5517578c1.6113281-1.0351562,2.4229126-2.5878906,2.4229126-4.6591797v-38.6953125
			c0-4.4599609-2.0380859-7.5224609-6.1083984-9.1942749c-4.0733032-1.6719055-8.3633118-2.5097961-12.8868103-2.5097961
			l-3.3916016,0.2382965v-19.0274048c4.968811,0,8.7022095-0.1582031,11.1924133-0.4745941
			c7.4618835-1.2695007,11.194397-4.3623047,11.194397-9.2763977v-29.4970093c0-1.7431946-0.8370056-3.0097961-2.5058899-3.8047028
			c-1.6708984-0.7929993-3.9570007-1.191391-6.8506165-1.191391c-3.1229858,0-5.5116882,0.402298-7.1835938,1.1991882
			c-1.6698914,0.7988129-2.5068054,2.0762024-2.5068054,3.8311005v30.8886108h-45.7743835v-30.9228058
			c0-9.0381012,4.9530945-16.2128906,14.8690796-21.5263977c9.9082031-5.3114929,24.1094055-7.9687042,42.6006165-7.9687042
			c18.0419922,0,32.0770874,2.6533051,42.0986023,7.9580078c10.0253906,5.3076019,15.0361938,12.4725952,15.0361938,21.4980011
			v22.8007965c0,6.1797028-1.3311157,11.0858917-3.9833984,14.7285004
			c-3.9833984,5.2276001-11.5058899,9.2686005-22.5674133,12.1152039
			c12.1689148,2.5419922,20.2451172,7.3847961,24.2324219,14.5263977c1.9911804,3.6513672,2.9862976,9.1298828,2.9862976,16.4317017
			V301.3994141z"/>
	</g>
</g>
</svg>
