<?xml version="1.0" encoding="utf-8"?>
<!-- Generator: Adobe Illustrator 17.0.0, SVG Export Plug-In . SVG Version: 6.00 Build 0)  -->
<svg version="1.2" baseProfile="tiny" id="Ebene_1" xmlns="http://www.w3.org/2000/svg" xmlns:xlink="http://www.w3.org/1999/xlink"
	 x="0px" y="0px" width="452.3790283px" height="580.9462891px" viewBox="0 0 452.3790283 580.9462891" xml:space="preserve">
<g>
	<g>
		<path fill="#FFFFFF" d="M451.7354126,436.875l-11.5028992-18.1416016
			c-5.5450134-8.7549133-17.0811157-13.0039062-25.6309204-9.4453125l-2.0888977,0.8642273l-3.8544922-9.2637024
			l-6.6210938-15.9237976l-4.1600952-9.9873047l-0.3897095-0.9355164l-8.0332031-19.3154907l-4.1590881-9.9891968
			l-0.7286072-1.7460938l-8.6015015-20.6719055v-0.0039062l-4.155304-9.9862976l-8.6806946-20.8554993l-4.157196-9.9960938
			l-9.9862976,4.1582031l-18.8701172,7.8526001c16.5195007-21.1211243,24.5312195-47.4092102,21.3768921-73.3096161
			c33.647522-55.5634918,45.7734985-105.7616959,35.8867188-149.4120941l-0.2705078-1.1913986L358.1582031,0l-95.9003906,39.9033012
			c-0.4687195-4.6680031-0.585907-9.3545017-0.2851257-14.0254021v-0.0155983
			c0.0742188-1.1348-0.421875-2.2832012-1.2958984-3.0117016c-0.8778992-0.7265987-2.0028992-0.9228992-2.9589844-0.5254002
			c-52.0596008,21.6621017-119.0243988,49.5254021-171.0850067,71.1875
			c-0.9589005,0.3983994-1.6092987,1.3436966-1.7127991,2.4725952c-0.1006012,1.1367035,0.3642044,2.2929993,1.2207031,3.0410004
			c0,0,0.0018997,0.0029984,0.0077972,0.0059052c3.550705,3.0878983,6.8368988,6.4608994,9.8906021,10.0380936L0,149.0301971
			l28.9521999,69.5782013l0.6513004,1.0301971c23.9981003,37.7773895,68.1563034,64.5634918,131.2872009,79.8555145
			c12.7890015,16.2216797,30.6815948,27.6532898,50.7938995,33.2919922l-14.7743988,22.5039062l-3.1484985,4.7987976
			l2.2061005,5.2978821l21.4003906,51.4287109L69.4375,562.7451172l-16.9804001,18.2011719h24.8955002h158.1943054h6.8417969
			l2.9355011-6.1817017l27.0821075-58.9375l178.1659851-74.1405945
			C452.406311,440.9227905,452.9356079,438.7587891,451.7354126,436.875z M48.839901,207.6396027l-18.2471008-43.8535004
			l59.3818016-24.7070007L90.4375,154.7480011l21.1768036,3.4228973l-0.7529068-25.5596008
			c0.0937042,0.2138977,0.1992035,0.4248047,0.2919998,0.6416016l4.0585022,10.7763977
			c0.6377029,2.055603,1.2413025,4.1201019,1.7471008,6.2207031c13.1161957,54.6367035,24.3125,101.8016968,29.0567017,119.9619141
			C108.5839996,258.907196,69.8233032,239.8379059,48.839901,207.6396027z M285.6895142,84.9365005l12.4960938-17.4384995
			l-10.0078125-10.8945007L347.0625,32.0985985l18.2481079,43.8623009
			c8.0428772,37.5497971-5.7207031,78.4424057-24.0567017,112.9491959
			c-9.734314-16.9091949-36.3193054-61.0077972-66.6396179-111.6981964
			c-1.8925781-3.1562958-3.5253906-6.4452972-5.007782-9.7871017L285.6895142,84.9365005z M209.2256012,210.3164062
			l-23.7969055-9.2822113c-5.0175018-1.9570923-5.3563995-5.8417969-0.7509003-8.635788l21.8426971-13.2451019l1.472702-25.4941101
			c0.3115082-5.3769989,3.902298-6.8994904,7.9795074-3.3808899l19.3437042,16.6757965l24.702179-6.4745941
			c5.2098999-1.3653107,7.7666016,1.5809937,5.6836243,6.5458984l-9.8858032,23.5487976l13.7949829,21.4931946
			c2.9101257,4.5332031,0.898407,7.875-4.4687805,7.4277039l-25.4502106-2.1260071l-16.1806946,19.7647095
			c-3.4121094,4.1660004-7.210907,3.2870941-8.4423065-1.9571075L209.2256012,210.3164062z M235.5469055,570.1240234H77.3526001
			l152.684494-151.0264282l-24.0820007-57.868103l23.3096008-35.5058899l43.191391-10.9980164l2.0732117,8.984314
			l12.7246094-2.9335938l-2.1386108-9.273407l5.992218-1.523407l1.9647827,23.1542969l-31.7382812,13.2070007l37.1493835,89.2773132
			L235.5469055,570.1240234z M319.7246094,333.7842102l-8.6035156-20.6739197l42.0215149-17.4844055l8.601593,20.6758118
			l-42.0195923,17.4804993V333.7842102z M323.8808899,343.7744141l42.0176086-17.4854126l8.6787109,20.8604126L332.5625,364.6318054
			L323.8808899,343.7744141z M340.5527954,375.0751953l38.9082031-16.1904907l8.0361023,19.3115845l-38.9092102,16.1953125
			L340.5527954,375.0751953z M366.6005859,418.3895874l-6.6259766-15.9237976l32.0704041-13.3417969l6.625,15.9199219
			L366.6005859,418.3895874z"/>
	</g>
	<g>
		
			<rect x="314.6651917" y="316.1559448" transform="matrix(0.386726 0.9221947 -0.9221947 0.386726 492.9332275 -100.8879013)" fill="#FFFFFF" width="15.3103342" height="8.035553"/>
	</g>
	<g>
		<polygon fill="#FFFFFF" points="328.1113892,345.7098999 334.0361938,359.8280945 341.4472961,356.7225952 
			335.5244141,342.6025085 		"/>
	</g>
	<g>
		
			<rect x="344.4653931" y="378.6682739" transform="matrix(0.3869196 0.9221135 -0.9221135 0.3869196 567.4923096 -89.383934)" fill="#FFFFFF" width="13.000885" height="6.82547"/>
	</g>
	<g>
		
			<rect x="363.3268433" y="405.6192627" transform="matrix(0.3869988 0.9220802 -0.9220802 0.3869988 602.6502686 -89.6109314)" fill="#FFFFFF" width="10.7899475" height="5.6609192"/>
	</g>
</g>
</svg>
