<?xml version="1.0" encoding="utf-8"?>
<!-- Generator: Adobe Illustrator 17.0.0, SVG Export Plug-In . SVG Version: 6.00 Build 0)  -->
<svg version="1.2" baseProfile="tiny" id="Ebene_1" xmlns="http://www.w3.org/2000/svg" xmlns:xlink="http://www.w3.org/1999/xlink"
	 x="0px" y="0px" width="503.4116211px" height="571.3242798px" viewBox="0 0.0000305 503.4116211 571.3242798"
	 xml:space="preserve">
<g>
	<path fill="#FFFFFF" d="M251.7070007,0.0000305L0,74.8555298L52.1835976,423.991333l199.523407,147.3330078L451.2265015,423.991333
		l52.1850891-349.1358032L251.7070007,0.0000305z M261.2118835,170.4053345l24.7749023,50.2021942l55.3999329,8.0536957
		c11.6825867,1.6953125,14.3251648,9.8261108,5.8739929,18.0674133l-40.0884094,39.0809937l9.4628906,55.1758118
		c1.9946899,11.6347961-4.9194031,16.6630859-15.3700867,11.1659851l-49.5532074-26.0508118l-0.0048981,0.0020142V162.4659271
		C255.152298,162.4600372,258.5986023,165.108429,261.2118835,170.4053345z M110.6577148,388.8125305l-40.22612-269.1434937
		l181.2754059-53.9091949v96.7031097c-3.445282-0.0028992-6.8906097,2.6454926-9.5039062,7.9423981l-24.7753754,50.2021942
		l-55.3979187,8.0536957c-11.6822052,1.6953125-14.3238068,9.8281097-5.8710938,18.0674133l40.0868835,39.0810089
		l-9.4644012,55.1758118c-1.9950867,11.6347961,4.9195251,16.6630859,15.371109,11.1659851l49.5507965-26.0508118
		l0.0039062,0.0020142v166.8651733L110.6577148,388.8125305z"/>
</g>
</svg>
